Coordinates
version=1
nRows=16
nColumns=42
inDegrees=yes

Units are S.I. units (second, meters, Newtons, ...)
If the header above contains a line with 'inDegrees', this indicates whether rotational values are in degrees (yes) or radians (no).

endheader
time	pelvis_tilt	pelvis_list	pelvis_rotation	pelvis_tx	pelvis_ty	pelvis_tz	hip_flexion_r	hip_adduction_r	hip_rotation_r	knee_angle_r	knee_adduction_r	knee_angle_r_beta	ankle_angle_r	subtalar_angle_r	mtp_angle_r	hip_flexion_l	hip_adduction_l	hip_rotation_l	knee_angle_l	knee_adduction_l	knee_angle_l_beta	ankle_angle_l	subtalar_angle_l	mtp_angle_l	lumbar_extension	lumbar_bending	lumbar_rotation	arm_flex_r	arm_add_r	arm_rot_r	elbow_flex_r	pro_sup_r	wrist_flex_r	wrist_dev_r	arm_flex_l	arm_add_l	arm_rot_l	elbow_flex_l	pro_sup_l	wrist_flex_l	wrist_dev_l
      1.98000000	     10.59316712	      0.50059895	      8.68618401	      0.29487886	      0.87853011	      0.15708945	     12.81052734	      0.08093342	     -5.47828492	     50.01549532	      0.36372643	      0.87293507	     16.88236035	    -14.59073540	     -7.51531463	      1.07044949	      5.44561634	     -2.29440001	     27.61890377	     -5.43508529	      0.48204081	     23.95754815	      2.09469637	     -7.51531463	    -38.43196507	      5.61842064	     -8.20053629	     14.11854981	     -9.54691621	      5.50458786	     38.83778617	     90.00000001	      0.00000000	      0.00000000	     21.57428574	    -16.53531525	      3.89009476	     37.21115264	     90.00000001	      0.00000000	      0.00000000
      1.99000000	     10.23209372	      0.61296988	      8.84110211	      0.30267570	      0.87763968	      0.15667485	     13.74938428	     -0.20411565	     -5.24510038	     47.09730778	      0.68078625	      0.82200309	     16.72670696	    -14.15983351	     -7.51493604	      0.90385083	      5.65109072	     -2.47294065	     27.66049339	     -5.75799799	      0.48276668	     24.51478447	      2.33648987	     -7.51493604	    -38.13717886	      5.58374257	     -8.37518667	     13.64403271	     -9.49016571	      5.19443132	     38.37301721	     90.00000001	      0.00000000	      0.00000000	     22.19300943	    -16.71546170	      4.44230396	     37.63202792	     90.00000001	      0.00000000	      0.00000000
      2.00000000	     10.26648623	      0.56489015	      8.92603712	      0.31088719	      0.87760911	      0.15683604	     13.87225333	     -0.03707263	     -4.61509250	     43.41346302	      1.04522254	      0.75770787	     16.22736010	    -14.35240033	     -7.51433678	      0.19153987	      5.33271150	     -2.78928975	     27.52825473	     -5.65010390	      0.48045868	     25.15532924	      3.23141984	     -7.51433678	    -38.26022388	      5.67942278	     -8.32211155	     13.22522230	     -9.31846184	      4.38291867	     37.79830523	     90.00000001	      0.00000000	      0.00000000	     22.81344457	    -17.04991403	      5.58442279	     38.19198058	     90.00000001	      0.00000000	      0.00000000
      2.01000000	     10.15066830	      0.57126463	      8.99942218	      0.31906391	      0.87708898	      0.15691856	     14.14727630	     -0.00282317	     -4.12443814	     39.73667761	      1.32429297	      0.69353586	     15.65432601	    -14.67641854	     -7.51358851	     -0.30134980	      5.20231744	     -3.30005328	     27.47013672	     -5.84237910	      0.47944433	     25.86091180	      4.22375230	     -7.51358851	    -38.21628919	      5.70815463	     -8.28954179	     12.73384381	     -9.19678024	      3.60954028	     37.40135386	     90.00000001	      0.00000000	      0.00000000	     23.40130140	    -17.31537577	      6.49354931	     38.74961900	     90.00000001	      0.00000000	      0.00000000
      2.02000000	      9.95540831	      0.59201961	      9.06923862	      0.32719731	      0.87627942	      0.15704224	     14.45996649	     -0.05682512	     -3.82997264	     36.04548995	      1.54143702	      0.62911248	     15.20261454	    -14.85594790	     -7.51257955	     -0.62816539	      5.06115509	     -3.93417251	     27.54723437	     -6.00996942	      0.48078994	     26.60286278	      5.32635173	     -7.51257955	    -38.10266267	      5.71345454	     -8.26364133	     12.25072907	     -9.10148117	      2.91886890	     37.04211763	     90.00000001	      0.00000000	      0.00000000	     23.97437239	    -17.50887887	      7.20342760	     39.28096704	     90.00000001	      0.00000000	      0.00000000
      2.03000000	      9.77921694	      0.59901015	      9.15792322	      0.33545174	      0.87542316	      0.15719206	     14.62793349	     -0.06069443	     -3.77311230	     32.23520195	      1.56557938	      0.56261041	     14.90850892	    -14.70700899	     -7.51170285	     -1.00211957	      4.91021252	     -4.42616935	     27.60782175	     -6.15340327	      0.48184739	     27.32627010	      6.19941197	     -7.51170285	    -37.99595376	      5.74139344	     -8.24139974	     11.78774544	     -9.01776892	      2.28181090	     36.65966691	     90.00000001	      0.00000000	      0.00000000	     24.50981966	    -17.68777034	      7.83436314	     39.81564498	     90.00000001	      0.00000000	      0.00000000
      2.04000000	      9.28018878	      0.75529927	      9.29213818	      0.34339156	      0.87374081	      0.15706973	     15.32973644	     -0.42441952	     -4.19298055	     28.98822682	      1.52942036	      0.50594000	     14.99225694	    -13.85424999	     -7.51142716	     -0.94872026	      5.17586164	     -4.58879101	     27.82154190	     -6.49440958	      0.48557751	     27.93016088	      6.29957825	     -7.51142716	    -37.56146957	      5.62663216	     -8.39674786	     11.32058327	     -9.00740192	      2.01187471	     36.33611345	     90.00000001	      0.00000000	      0.00000000	     24.99592393	    -17.81478700	      8.12877068	     40.27111748	     90.00000001	      0.00000000	      0.00000000
      2.05000000	      9.46861602	      0.61277559	      9.34874134	      0.35226882	      0.87352370	      0.15769860	     14.64928912	     -0.05073263	     -4.16899093	     24.76222854	      1.41193841	      0.43218242	     14.43346459	    -13.69979402	     -7.51080924	     -1.86784645	      4.61298368	     -5.12189185	     27.67489200	     -6.39141743	      0.48301799	     28.70267979	      7.56496210	     -7.51080924	    -37.80180487	      5.79654299	     -8.15889355	     10.83444404	     -8.86422492	      1.02832653	     36.00357934	     90.00000001	      0.00000000	      0.00000000	     25.45427655	    -17.99745260	      8.90613103	     40.95074960	     90.00000001	      0.00000000	      0.00000000
      2.06000000	      9.30513969	      0.53799146	      9.46435501	      0.36079930	      0.87237347	      0.15805005	     14.58609736	      0.07696419	     -4.33150852	     21.33383986	      1.33324074	      0.37234575	     14.18153994	    -13.19805553	     -7.51028548	     -2.22768604	      4.34261269	     -5.48101035	     27.83879233	     -6.49196912	      0.48587859	     29.43962316	      8.23166616	     -7.51028548	    -37.67404252	      5.91127174	     -8.08944276	     10.39531172	     -8.81069461	      0.42109155	     35.69068031	     90.00000001	      0.00000000	      0.00000000	     25.83404226	    -18.10089221	      9.32094210	     41.53438858	     90.00000001	      0.00000000	      0.00000000
      2.07000000	      8.80298741	      0.68567928	      9.58889325	      0.36892643	      0.87044909	      0.15797142	     15.20046729	     -0.33597605	     -4.80514606	     18.97676912	      1.50989408	      0.33120710	     14.12247582	    -12.39264120	     -7.51008944	     -2.18049609	      4.65043977	     -5.50417449	     28.05023811	     -6.89262982	      0.48956901	     30.13240912	      8.26503537	     -7.51008944	    -37.23628915	      5.82734692	     -8.20313754	      9.94133874	     -8.87511783	      0.18927069	     35.52429676	     90.00000001	      0.00000000	      0.00000000	     26.17977507	    -18.14061812	      9.47011954	     42.00735348	     90.00000001	      0.00000000	      0.00000000
      2.08000000	      8.55836814	      0.63120497	      9.75903177	      0.37760894	      0.86895016	      0.15820331	     15.30124517	     -0.36933660	     -5.12768792	     16.65492586	      1.67063652	      0.29068329	     14.03035378	    -11.60146122	     -7.50992077	     -2.46700062	      4.53813324	     -5.44944219	     28.24929207	     -7.07811348	      0.49304316	     30.91278221	      8.37232627	     -7.50992077	    -36.98092836	      5.95265142	     -8.18312529	      9.50411749	     -8.89672455	     -0.17767441	     35.25656157	     90.00000001	      0.00000000	      0.00000000	     26.41738169	    -18.18530871	      9.68505249	     42.56762243	     90.00000001	      0.00000000	      0.00000000
      2.09000000	      8.64192359	      0.45045687	      9.97002643	      0.38666767	      0.86810346	      0.15862564	     14.80726929	     -0.10522439	     -5.10231198	     14.40739186	      1.80800863	      0.25145642	     13.67113511	    -11.06193168	     -7.50972029	     -3.17364631	      4.03507489	     -5.36230507	     28.39663770	     -6.90591145	      0.49561482	     31.71331744	      8.69940642	     -7.50972029	    -37.04351764	      6.25388914	     -8.09409045	      9.15542313	     -8.84925226	     -0.79929494	     35.01843157	     90.00000001	      0.00000000	      0.00000000	     26.61966352	    -18.26671752	      9.97502217	     43.29863951	     90.00000001	      0.00000000	      0.00000000
      2.10000000	      8.68884074	      0.25526071	     10.09110107	      0.39581560	      0.86717502	      0.15927107	     14.49478944	      0.23954656	     -4.80950210	     12.96858084	      1.92061088	      0.22634443	     13.10752101	    -11.24982363	     -7.50943747	     -3.88922715	      3.61145971	     -5.24937733	     28.40718047	     -6.90569339	      0.49579883	     32.26488581	      8.94607097	     -7.50943747	    -37.07103050	      6.51827444	     -7.89740488	      8.75274671	     -8.82473219	     -1.48285608	     34.86552906	     90.00000001	      0.00000000	      0.00000000	     26.73192433	    -18.31298792	     10.19349293	     43.98992369	     90.00000001	      0.00000000	      0.00000000
      2.11000000	      8.58813135	      0.10196392	     10.26036248	      0.40485102	      0.86595312	      0.15973341	     14.51474097	      0.44086552	     -4.60825189	     12.40546162	      2.09670485	      0.21651615	     12.67679177	    -11.46769832	     -7.50924701	     -4.39714661	      3.35438314	     -4.93014434	     28.52439128	     -6.98053699	      0.49784454	     32.95347809	      8.78321465	     -7.50924701	    -36.93755617	      6.76761413	     -7.79031770	      8.39645858	     -8.88055032	     -1.82820637	     34.67511983	     90.00000001	      0.00000000	      0.00000000	     26.80708226	    -18.27512801	     10.22300206	     44.54773620	     90.00000001	      0.00000000	      0.00000000
      2.12000000	      8.47766511	      0.04282592	     10.42165519	      0.41404809	      0.86475919	      0.16021821	     14.61183602	      0.55670367	     -4.45999581	     12.49142984	      2.22633427	      0.21801658	     12.59393117	    -11.45775804	     -7.50923329	     -4.89575452	      3.22081535	     -4.80740827	     28.65762518	     -7.16207897	      0.50016992	     33.04586925	      8.75090127	     -7.50923329	    -36.75192639	      6.90923538	     -7.75533922	      8.02313211	     -8.94290543	     -1.87425994	     34.49610349	     90.00000001	      0.00000000	      0.00000000	     26.89194497	    -18.23340549	     10.21017965	     44.70153481	     90.00000001	      0.00000000	      0.00000000
      2.13000000	      8.63190159	     -0.32459930	     10.66139320	      0.42331700	      0.86426390	      0.16067078	     14.21683533	      1.16313696	     -3.65281544	     12.52115310	      2.36929021	      0.21853535	     11.44544860	    -13.01015376	     -7.50854194	     -5.82405964	      2.71494889	     -3.59881660	     28.61017440	     -6.93046235	      0.49934174	     33.61510973	      7.26057046	     -7.50854194	    -36.86228397	      7.46788039	     -7.53813842	      7.88165560	     -8.93648456	     -2.78380285	     34.21024471	     90.00000001	      0.00000000	      0.00000000	     26.74018805	    -18.15839577	     10.16812850	     45.66936047	     90.00000001	      0.00000000	      0.00000000
